<?xml version="1.0" standalone="no"?>
<!DOCTYPE svg PUBLIC "-//W3C//DTD SVG 20010904//EN"
 "http://www.w3.org/TR/2001/REC-SVG-20010904/DTD/svg10.dtd">
<svg version="1.0" xmlns="http://www.w3.org/2000/svg"
 width="16.000000pt" height="16.000000pt" viewBox="0 0 16.000000 16.000000"
 preserveAspectRatio="xMidYMid meet">
<metadata>
Created by potrace 1.11, written by Peter Selinger 2001-2013
</metadata>
<g transform="translate(0.000000,16.000000) scale(0.003125,-0.003125)"
fill="#000000" stroke="none">
<path d="M2363 4726 l2 -394 -684 -1 c-375 0 -685 -1 -687 -4 -2 -2 12 -41 32
-87 72 -172 141 -450 160 -649 3 -31 7 -74 9 -96 7 -63 7 -302 0 -395 -15
-208 -62 -451 -127 -645 -37 -111 -141 -347 -179 -405 -9 -14 -37 -59 -64
-100 -26 -41 -62 -93 -80 -115 -17 -22 -35 -45 -38 -52 -6 -9 180 -12 819 -12
454 1 828 -2 832 -5 3 -4 6 -92 6 -196 l1 -190 -110 0 c-1130 -4 -1476 0
-1541 15 -125 29 -218 96 -269 195 -26 51 -47 122 -47 160 0 22 -6 18 -57 -36
-73 -77 -141 -174 -201 -288 -44 -85 -102 -238 -115 -303 -28 -151 -27 -354 3
-473 61 -234 211 -426 423 -539 93 -49 169 -76 285 -98 50 -10 3488 -10 3569
-1 190 23 414 110 535 206 192 154 278 333 275 572 -2 162 -46 265 -200 470
-98 131 -143 206 -166 281 -20 63 -27 168 -14 212 36 123 130 191 297 211 l89
11 -31 42 c-40 54 -111 106 -175 128 -49 17 -179 24 -235 12 -223 -45 -308
-122 -460 -412 -133 -255 -215 -328 -400 -360 -26 -5 -1134 -10 -1242 -6 -17
1 -18 17 -18 196 l0 195 98 0 c53 1 363 1 688 1 l591 0 34 42 c131 157 268
453 306 656 2 14 6 27 8 31 2 4 7 29 11 56 3 27 8 51 9 54 19 32 28 482 12
610 -12 96 -25 176 -42 255 -9 39 -18 81 -21 95 -15 74 -85 284 -139 415 -29
70 -144 299 -163 323 l-18 23 -687 0 -687 0 0 196 0 196 98 -7 c53 -4 111 -9
127 -11 44 -5 139 -18 145 -20 3 -1 25 -5 48 -9 57 -10 167 -46 267 -86 212
-85 418 -77 639 24 129 59 273 156 375 253 l46 43 -68 -30 c-63 -28 -175 -59
-272 -75 -67 -12 -297 -14 -359 -4 -85 14 -154 39 -332 122 -230 108 -364 151
-534 172 -25 3 -61 8 -80 10 -19 3 -94 7 -167 10 l-132 6 2 -395z"/>
</g>
</svg>
